<svg xmlns="http://www.w3.org/2000/svg" width="512" height="512" fill="none"><path fill="#FDDC60" d="M0 0h512v512H0z"/><path fill="#000" d="M145.1 185.5c-21.1-.5-25.1 17-25 24.7.5 9 5 25 24.1 24.2 17.7-.8 24-14.7 24.5-21.1 1.3-9.6-2.7-27.4-23.6-27.8Zm93.1 14.5a133 133 0 0 0-2.7 17.7c-4 38 1 39.8 7.2 45.2 4 3.3 10.6 1.8 14 .4 2.2-.9 4.6-.9 5.8 0 1.8 1.4 6.3 2.3 12.6-.4 9.3-4 8.6-12.2 8.6-24.4 0-5.6-.2-10.6 0-15.8.2-6.2.9-12.6 0-20.4-1.8-16.3-16.7-14-19.8-15-3.2-.8-2.3-4-10.8-3-8.6.8-13 8-14.9 15.7Zm111.7-38c-7.2 8-6.6 20.7-5.4 25.8 1.8 18.6 14 24.5 20.7 24.5 6.8 0 2.8-1.2 15.8-6.8 10.3-4.5 15-16.3 15.7-24.9 1-10.4-5.8-23-18.4-26.2-11.7-3-19.4-2.3-28.4 7.7Zm-47.3 155.1-30.6 8.2c-4 1-13.4 3.6-18.5 5.4-6.3 2.3-18 5-15.7 20.3 2 13.7 17 14.7 24.7 13.6 13.4-1 43.4-3.6 56.8-5.4 13.3-1.8 17.2-11.3 17.5-15.8 1-6.8 1.2-21.5-6.7-25.8-8-4.3-21.6-2.1-27.5-.5Z"/></svg>